<?xml version="1.0" standalone="no"?>
<!DOCTYPE svg PUBLIC "-//W3C//DTD SVG 20010904//EN"
 "http://www.w3.org/TR/2001/REC-SVG-20010904/DTD/svg10.dtd">
<svg version="1.0" xmlns="http://www.w3.org/2000/svg"
 width="500.000000pt" height="500.000000pt" viewBox="0 0 500.000000 500.000000"
 preserveAspectRatio="xMidYMid meet">
<metadata>
Created by potrace 1.16, written by Peter Selinger 2001-2019
</metadata>
<g transform="translate(0.000000,500.000000) scale(0.100000,-0.100000)"
fill="#000000" stroke="none">
<path d="M2458 3153 c-21 -2 -38 -7 -37 -11 0 -4 30 -31 66 -61 l65 -55 248 0
c137 -1 246 2 242 6 -10 10 -147 63 -222 86 -77 24 -283 44 -362 35z"/>
<path d="M2165 3114 c-22 -8 -46 -16 -53 -19 -8 -3 0 -21 25 -56 l37 -52 150
7 c82 3 151 8 154 10 10 10 -44 70 -86 97 -40 25 -55 29 -116 28 -39 0 -89 -7
-111 -15z"/>
<path d="M2875 2995 c283 -33 336 -50 414 -127 l44 -43 -22 42 c-34 68 -31 73
52 75 85 1 93 1 132 -6 62 -12 -1 12 -75 28 -129 28 -329 46 -495 45 l-160 -1
110 -13z"/>
<path d="M3315 2920 c-7 -12 27 -80 51 -102 15 -12 44 -17 124 -19 l105 -4 -3
30 -2 30 17 -30 c22 -41 29 -15 7 30 -10 21 -22 34 -30 31 -7 -3 -15 1 -18 9
-3 8 -22 19 -43 24 -48 14 -200 14 -208 1z"/>
<path d="M2755 2838 c38 -29 55 -76 55 -149 0 -77 -16 -132 -47 -161 l-25 -23
-826 -5 c-726 -4 -827 -7 -827 -20 0 -13 162 -15 1403 -13 772 0 1410 4 1419
7 12 5 13 9 3 21 -10 12 -47 15 -207 15 -127 0 -192 3 -188 10 4 6 -40 10
-124 10 -112 0 -130 -2 -125 -15 5 -13 -19 -15 -187 -15 -150 0 -190 3 -181
12 19 19 14 28 -13 28 -22 0 -25 4 -26 38 l-1 37 -9 -30 c-4 -17 -23 -44 -41
-60 -18 -17 -25 -21 -17 -10 80 99 69 284 -21 330 -41 21 -47 19 -15 -7z"/>
<path d="M2900 2617 l0 -46 58 -7 c76 -11 529 -11 614 -1 72 9 115 33 105 59
-5 13 -12 14 -54 3 -74 -19 -243 -27 -390 -17 -108 7 -136 12 -153 27 -16 14
-40 20 -101 23 l-79 4 0 -45z"/>
</g>
</svg>
